<?xml version="1.0" standalone="no"?>
<!DOCTYPE svg PUBLIC "-//W3C//DTD SVG 20010904//EN"
 "http://www.w3.org/TR/2001/REC-SVG-20010904/DTD/svg10.dtd">
<svg version="1.0" xmlns="http://www.w3.org/2000/svg"
 width="320.000000pt" height="320.000000pt" viewBox="0 0 320.000000 320.000000"
 preserveAspectRatio="xMidYMid meet">
<metadata>
Created by potrace 1.11, written by Peter Selinger 2001-2013
</metadata>
<g transform="translate(0.000000,320.000000) scale(0.100000,-0.100000)"
fill="#000000" stroke="none">
<path d="M200 2300 l0 -700 500 0 500 0 0 -500 0 -500 -500 0 -500 0 0 -200 0
-200 700 0 700 0 0 1400 0 1400 -200 0 -200 0 0 -500 0 -500 -300 0 -300 0 0
500 0 500 -200 0 -200 0 0 -700z"/>
<path d="M1800 2400 l0 -600 200 0 200 0 0 200 0 200 200 0 200 0 0 -200 0
-200 200 0 200 0 0 600 0 600 -200 0 -200 0 0 -200 0 -200 -200 0 -200 0 0
200 0 200 -200 0 -200 0 0 -600z"/>
<path d="M1800 800 l0 -600 600 0 600 0 0 200 0 200 -400 0 -400 0 0 200 0
200 400 0 400 0 0 200 0 200 -600 0 -600 0 0 -600z"/>
</g>
</svg>
